<?xml version="1.0" encoding="UTF-8" standalone="no"?>
<svg
   width="407"
   height="52.542721"
   version="1.1"
   id="svg69"
   sodipodi:docname="systemd_logo.svg"
   inkscape:version="1.1.2 (0a00cf5339, 2022-02-04)"
   xmlns:inkscape="http://www.inkscape.org/namespaces/inkscape"
   xmlns:sodipodi="http://sodipodi.sourceforge.net/DTD/sodipodi-0.dtd"
   xmlns="http://www.w3.org/2000/svg"
   xmlns:svg="http://www.w3.org/2000/svg">
  <defs
     id="defs73" />
  <sodipodi:namedview
     id="namedview71"
     pagecolor="#ffffff"
     bordercolor="#666666"
     borderopacity="1.0"
     inkscape:pageshadow="2"
     inkscape:pageopacity="0.0"
     inkscape:pagecheckerboard="0"
     showgrid="true"
     inkscape:lockguides="true"
     inkscape:zoom="2.56"
     inkscape:cx="186.52344"
     inkscape:cy="72.460938"
     inkscape:window-width="1918"
     inkscape:window-height="1144"
     inkscape:window-x="0"
     inkscape:window-y="0"
     inkscape:window-maximized="1"
     inkscape:current-layer="svg69">
    <inkscape:grid
       type="xygrid"
       id="grid1396"
       originx="-48"
       originy="-86" />
  </sodipodi:namedview>
  <g
     transform="translate(12,-917.61)"
     id="g67">
    <path
       fill="#201a26"
       d="m -60,831.611 h 300 v 200 H -60 Z"
       id="path57"
       style="fill:none" />
    <path
       style="line-height:normal;font-variant-ligatures:normal;font-variant-position:normal;font-variant-caps:normal;font-variant-numeric:normal;font-variant-alternates:normal;font-feature-settings:normal;text-indent:0;text-align:start;text-decoration-line:none;text-decoration-style:solid;text-decoration-color:#000000;text-transform:none;text-orientation:mixed;white-space:normal;shape-padding:0;isolation:auto;mix-blend-mode:normal;solid-color:#000000;solid-opacity:1;stroke-width:2.02088"
       d="m -12,917.61 v 52.54272 H 8.2087409 v -8.0835 H -3.9165037 V 925.69349 H 8.2087409 V 917.61 Z m 153.58643,0 v 8.08349 h 12.12525 v 36.37573 h -12.12525 v 8.0835 h 20.20874 V 917.61 Z"
       color="#000000"
       font-weight="400"
       font-family="sans-serif"
       overflow="visible"
       fill="#ffffff"
       id="path59" />
    <path
       d="m 217.36517,947.77356 q -9.09393,-1.94004 -9.09393,-7.83694 0,-2.18052 1.2307,-4.00336 1.25497,-1.82283 3.59918,-2.91208 2.34422,-1.09127 5.4705,-1.09127 3.29404,0 5.75546,1.06702 2.46345,1.04278 3.78913,2.93633 1.3257,1.87134 1.3257,4.28627 h -7.15187 q 0,-1.53989 -0.92354,-2.39068 -0.92354,-0.87707 -2.8171,-0.87707 -1.56417,0 -2.51195,0.73358 -0.92354,0.7356 -0.92354,1.89559 0,1.11148 1.04278,1.79857 1.06499,0.68709 3.59918,1.162 3.03131,0.56585 5.13908,1.49141 2.10777,0.8993 3.3405,2.50993 1.25295,1.61063 1.25295,4.09631 0,2.25126 -1.34793,4.04983 -1.32771,1.77836 -3.81339,2.79486 -2.46344,1.01854 -5.7312,1.01854 -3.45772,0 -5.99189,-1.25497 -2.50993,-1.27922 -3.83563,-3.26775 -1.30345,-1.99057 -1.30345,-4.14482 h 6.74971 q 0.0728,1.84707 1.32569,2.74839 1.25497,0.87503 3.22129,0.87503 1.82281,0 2.79486,-0.68709 0.99427,-0.70932 0.99427,-1.89355 0,-0.7356 -0.45066,-1.23274 -0.42437,-0.52138 -1.56213,-0.97003 -1.11148,-0.45065 -3.17277,-0.90131 z m 39.17262,-15.37076 -10.27817,29.46434 q -0.59211,1.67935 -1.46715,3.0778 -0.87706,1.42066 -2.55843,2.41493 -1.68136,1.01852 -4.2398,1.01852 -0.92354,0 -1.51565,-0.097 -0.56786,-0.093 -1.58639,-0.35567 v -5.39979 q 0.35569,0.0403 1.06501,0.0403 1.91983,0 2.86559,-0.59211 0.94982,-0.59212 1.44494,-1.94206 l 0.71134,-1.87132 -8.95248,-25.74191 h 7.67327 l 4.57122,15.53447 4.6177,-15.53447 z m 11.89082,15.37076 q -9.09394,-1.94004 -9.09394,-7.83694 0,-2.18052 1.23274,-4.00336 1.25294,-1.82283 3.59918,-2.91208 2.34421,-1.09127 5.4705,-1.09127 3.29201,0 5.75545,1.06702 2.46144,1.04278 3.78914,2.93633 1.32569,1.87134 1.32569,4.28627 h -7.15186 q 0,-1.53989 -0.92354,-2.39068 -0.92354,-0.87707 -2.81913,-0.87707 -1.56212,0 -2.50992,0.73358 -0.92354,0.7356 -0.92354,1.89559 0,1.11148 1.04278,1.79857 1.06499,0.68709 3.59918,1.162 3.0313,0.56585 5.13907,1.49141 2.10777,0.8993 3.33849,2.50993 1.25496,1.61063 1.25496,4.09631 0,2.25126 -1.34994,4.04983 -1.3257,1.77836 -3.81138,2.79486 -2.46344,1.01854 -5.73119,1.01854 -3.45771,0 -5.9919,-1.25497 -2.50993,-1.27922 -3.83764,-3.26775 -1.30144,-1.99057 -1.30144,-4.14482 h 6.74973 q 0.0728,1.84707 1.32568,2.74839 1.25496,0.87503 3.22128,0.87503 1.82284,0 2.79486,-0.68709 0.99428,-0.70932 0.99428,-1.89355 0,-0.7356 -0.45065,-1.23274 -0.42439,-0.52138 -1.56214,-0.97003 -1.1135,-0.45065 -3.17278,-0.90131 z m 28.25789,4.85616 q 1.15999,0 1.98853,-0.16561 v 5.37552 q -1.84708,0.66285 -4.21554,0.66285 -7.5318,0 -7.5318,-7.67326 v -13.2145 h -3.62342 v -5.20981 h 3.62342 v -6.34555 h 7.15391 v 6.34555 h 4.30849 v 5.20981 h -4.31053 v 12.38594 q 0,1.51565 0.59213,2.08352 0.59212,0.54563 2.01481,0.54563 z m 28.75299,-5.09057 h -16.19932 q 0.40418,2.39068 1.99056,3.81136 1.58639,1.39643 4.07206,1.39643 1.84707,0 3.41124,-0.68709 1.58638,-0.70934 2.69988,-2.10575 l 3.43346,3.95484 q -1.34994,1.94004 -3.95484,3.26776 -2.58268,1.3257 -6.06262,1.3257 -3.93264,0 -6.8447,-1.65713 -2.88986,-1.65712 -4.45199,-4.50049 -1.53991,-2.84135 -1.53991,-6.27481 v -0.90132 q 0,-3.8356 1.44494,-6.84267 1.44492,-3.00908 4.16904,-4.68843 2.72213,-1.70562 6.44053,-1.70562 3.62343,0 6.18186,1.5379 2.5564,1.53989 3.88411,4.38124 1.3257,2.81913 1.3257,6.65474 z m -7.01042,-5.35531 q -0.0484,-2.08151 -1.15996,-3.28999 -1.09129,-1.20849 -3.26776,-1.20849 -2.03705,0 -3.19702,1.34994 -1.13776,1.34995 -1.49343,3.71842 h 9.11817 z m 40.26188,-10.25191 q 3.90838,0 6.04039,2.31997 2.13001,2.31997 2.13001,7.53179 v 16.24581 h -7.15188 v -16.27005 q 0,-1.61065 -0.42437,-2.48568 -0.42844,-0.90131 -1.23274,-1.23274 -0.78208,-0.33142 -1.98854,-0.33142 -1.44492,0 -2.46344,0.71135 -1.01853,0.6871 -1.61065,1.96429 0.0403,0.16578 0.0403,0.54564 v 17.0966 h -7.15388 v -16.19731 q 0,-1.61065 -0.42439,-2.50992 -0.4264,-0.8993 -1.23274,-1.25497 -0.78005,-0.35568 -2.01279,-0.35568 -1.3742,0 -2.3907,0.61436 -0.99426,0.59211 -1.61063,1.70561 v 17.99791 h -7.15187 V 932.4028 h 6.70122 l 0.23846,2.86761 q 1.27921,-1.61063 3.12629,-2.46545 1.87134,-0.87505 4.21554,-0.87505 2.36847,0 4.07409,0.97003 1.72785,0.9498 2.65139,2.9141 1.27921,-1.87134 3.19702,-2.86561 1.94206,-1.01852 4.45198,-1.01852 z M 395,921.65176 v 36.37573 h -6.44053 l -0.35567,-2.74638 q -2.51194,3.22129 -6.49105,3.22129 -3.10204,0 -5.37552,-1.65713 -2.24924,-1.68136 -3.43347,-4.61769 -1.15999,-2.93835 -1.15999,-6.70324 v -0.49714 q 0,-3.90837 1.15999,-6.86693 1.18423,-2.96059 3.43548,-4.59547 2.27147,-1.63287 5.42201,-1.63287 3.64769,0 6.08688,2.7686 v -13.04676 z m -11.4624,31.07295 q 3.00706,0 4.31053,-2.55843 v -9.89824 q -1.23273,-2.55843 -4.26404,-2.55843 -2.43919,0 -3.57695,1.98854 -1.11148,1.99057 -1.11148,5.32905 v 0.49714 q 0,3.292 1.09127,5.2583 1.11148,1.94004 3.55067,1.94004 z"
       style="line-height:1.25;-inkscape-font-specification:'Heebo Bold';text-align:start;stroke-width:2.02088"
       fill="#ffffff"
       font-weight="700"
       font-size="12px"
       font-family="Heebo"
       letter-spacing="0.2"
       word-spacing="0"
       id="path61" />
    <path
       d="M 78.939334,943.88136 115.31507,923.67262 V 964.0901 Z"
       fill="#30d475"
       id="path63"
       style="stroke-width:2.02088" />
    <circle
       r="18.187866"
       cy="943.88342"
       cx="48.628242"
       fill="#30d475"
       id="circle65"
       style="stroke-width:2.02088" />
  </g>
</svg>
